#!OML:ASF H:\Terrain\Patient Classification 1\Terrain2\Thursday\justin.ASF
:FULLY-SPECIFIED
:DEGREES
2074
root -0.607465 23.6865 -0.265004 1153.32 -260.661 -285.419
lowerback 10.1223 0.678191 4.84024
upperback 3.30404 1.71074 4.22229
thorax -2.22719 0.934767 1.45626
lowerneck -12.2335 -3.18668 -9.80356
upperneck 38.9255 -1.27849 3.52313
head 16.0715 -0.884343 3.25452
rclavicle -1.3418e-014 -4.96962e-014
rhumerus -30.402 -4.94271 -80.9802
rradius 24.9594
rwrist -7.57809
rhand -19.4879 11.4015
rfingers 7.12502
rthumb 6.83415 -18.4682
lclavicle -1.3418e-014 -4.96962e-014
lhumerus -30.3686 5.41297 86.7667
lradius 34.6647
lwrist 3.78274
lhand -17.8168 20.4952
lfingers 7.12502
lthumb 8.44712 50.3063
rfemur -6.05261 0.860774 32.0506
rtibia 28.9666
rfoot -18.6744 3.50494
rtoes 20.0891
lfemur -26.2447 4.50281 -8.24308
ltibia 71.3625
lfoot -0.338097 -16.0579
ltoes 3.69142
2075
root -0.53162 23.6809 -0.251004 1153.07 -260.875 -285.47
lowerback 10.2497 0.677965 4.4734
upperback 3.32228 1.68757 4.31006
thorax -2.29216 0.922816 1.75354
lowerneck -12.1748 -3.10885 -10.0793
upperneck 39.0651 -1.10855 3.65158
head 16.1214 -0.834053 3.39608
rclavicle -9.59136e-015 -8.34896e-015
rhumerus -30.0852 -4.48601 -80.9613
rradius 24.7949
rwrist -7.2609
rhand -19.8462 11.1006
rfingers 7.12502
rthumb 6.4883 -18.78
lclavicle -9.59136e-015 -8.34896e-015
lhumerus -30.7683 6.33031 86.643
lradius 34.5116
lwrist 3.50233
lhand -17.5532 20.2917
lfingers 7.12502
lthumb 8.70152 50.0923
rfemur -5.41549 0.874089 32.0096
rtibia 28.6211
rfoot -18.87 2.80614
rtoes 17.3223
lfemur -27.2712 4.68758 -8.45528
ltibia 72.3598
lfoot -1.3408 -14.4573
ltoes 5.05167
2076
root -0.4598 23.6648 -0.244783 1153.46 -260.967 -284.954
lowerback 10.385 0.768867 4.52362
upperback 3.29473 1.81798 4.20471
thorax -2.3901 0.9847 1.59735
lowerneck -12.0682 -3.11436 -9.8229
upperneck 39.147 -1.21486 3.72308
head 16.1405 -0.827168 3.3688
rclavicle 3.52843e-015 6.75868e-015
rhumerus -29.8209 -5.08585 -80.9386
rradius 24.5404
rwrist -6.44931
rhand -19.9694 11.1472
rfingers 7.12502
rthumb 6.36939 -18.737
lclavicle 3.52843e-015 6.75868e-015
lhumerus -31.1113 6.35988 86.4019
lradius 34.428
lwrist 3.91452
lhand -17.6915 20.531
lfingers 7.12502
lthumb 8.56809 50.3372
rfemur -4.98585 0.839291 32.1638
rtibia 28.3506
rfoot -18.9281 1.61644
rtoes 11.2031
lfemur -28.4327 4.86494 -8.57076
ltibia 73.2446
lfoot -2.06104 -13.0758
ltoes 4.89024
2077
root -0.371853 23.6573 -0.239726 1153.64 -261.021 -284.578
lowerback 10.2727 1.02927 5.01186
upperback 3.43275 2.17947 3.8585
thorax -2.15044 1.16877 0.925758
lowerneck -12.0811 -3.36983 -9.54441
upperneck 39.2204 -1.7939 4.04083
head 16.2311 -0.981732 3.36867
rclavicle 6.75868e-015 -1.43125e-014
rhumerus -29.5777 -6.35778 -80.9071
rradius 24.4628
rwrist -6.07377
rhand -19.5596 11.5544
rfingers 7.12502
rthumb 6.76495 -18.3175
lclavicle 6.75868e-015 -1.43125e-014
lhumerus -31.0266 5.62847 86.1626
lradius 34.0931
lwrist 4.34342
lhand -18.1245 20.4418
lfingers 7.12502
lthumb 8.15018 50.2646
rfemur -4.33603 0.796326 32.2831
rtibia 28.0265
rfoot -18.9926 0.702849
rtoes 6.20311
lfemur -29.3183 5.10349 -8.69625
ltibia 73.8783
lfoot -2.92903 -11.9011
ltoes 2.86876
2078
root -0.282121 23.6567 -0.239039 1154.09 -261.027 -284.008
lowerback 9.79926 1.3292 5.72411
upperback 3.71677 2.58097 3.53919
thorax -1.5385 1.38863 0.173305
lowerneck -12.0547 -3.66853 -9.68411
upperneck 39.1116 -2.434 4.6105
head 16.2405 -1.19051 3.53603
rclavicle -5.41688e-015 -1.35174e-014
rhumerus -29.1637 -7.93387 -80.7267
rradius 24.4824
rwrist -5.65532
rhand -19.4098 11.6552
rfingers 7.12502
rthumb 6.90953 -18.212
lclavicle -5.41688e-015 -1.35174e-014
lhumerus -30.7503 5.1932 86.0052
lradius 33.7513
lwrist 4.27494
lhand -18.4275 20.2463
lfingers 7.12502
lthumb 7.85778 50.0803
rfemur -3.60675 1.06843 32.3085
rtibia 27.6191
rfoot -19.0558 0.997156
rtoes 8.59794
lfemur -30.1927 5.35252 -8.80366
ltibia 74.2844
lfoot -3.66506 -10.7048
ltoes 1.45118
2079
root -0.191916 23.6468 -0.248181 1154.76 -260.92 -283.215
lowerback 10.1153 1.28061 5.80902
upperback 3.39718 2.57529 3.74357
thorax -2.05135 1.36836 0.321745
lowerneck -11.6215 -3.54867 -9.84646
upperneck 39.3386 -2.11149 4.40692
head 16.2255 -1.09642 3.54116
rclavicle -1.02871e-014 -3.12092e-014
rhumerus -29.5188 -7.85922 -80.4228
rradius 24.5764
rwrist -5.35239
rhand -19.6509 11.3613
rfingers 7.12502
rthumb 6.67687 -18.5135
lclavicle -1.02871e-014 -3.12092e-014
lhumerus -31.8385 6.20883 85.8442
lradius 33.6344
lwrist 3.86528
lhand -18.3662 20.6397
lfingers 7.12502
lthumb 7.91689 50.4714
rfemur -3.11144 0.963264 32.447
rtibia 27.4768
rfoot -19.4188 1.02225
rtoes 7.26502
lfemur -31.0206 5.3974 -8.83725
ltibia 74.4478
lfoot -3.94328 -9.25538
ltoes 1.06685
2080
root -0.101063 23.6176 -0.246306 1155.18 -260.748 -282.533
lowerback 10.582 1.26593 6.19052
upperback 3.11941 2.64768 3.70084
thorax -2.57554 1.38562 0.0371278
lowerneck -11.3374 -3.48826 -9.71724
upperneck 39.6698 -1.98257 4.30953
head 16.3144 -1.02584 3.51467
rclavicle 2.89232e-014 3.89618e-014
rhumerus -29.967 -8.06165 -80.4445
rradius 24.8258
rwrist -5.35863
rhand -19.8981 11.1174
rfingers 7.12502
rthumb 6.43822 -18.7647
lclavicle 2.89232e-014 3.89618e-014
lhumerus -32.7462 6.46216 85.394
lradius 33.3659
lwrist 3.74804
lhand -18.2735 20.8795
lfingers 7.12502
lthumb 8.00634 50.7079
rfemur -2.66657 0.317602 32.8247
rtibia 27.4642
rfoot -19.9008 -0.273494
rtoes -1.94807
lfemur -31.7197 5.41835 -8.75062
ltibia 74.4974
lfoot -4.16018 -8.05565
ltoes 0.389377
